<svg xmlns="http://www.w3.org/2000/svg" width="2003.06" height="332.362" viewBox="0 0 2003.06 332.362">
  <g id="OBJECTS" transform="translate(-18.124 -7.009)" style="mix-blend-mode: luminosity;isolation: isolate">
    <circle id="Ellipse_1" data-name="Ellipse 1" cx="86.894" cy="86.894" r="86.894" transform="translate(759.567 86.322)" fill="#fff"/>
    <g id="Group_116" data-name="Group 116" transform="translate(18.5 7.381)">
      <path id="Path_4662" data-name="Path 4662" d="M104,46.491c44.988,12.942,82.272,53.616,125.1,84.121,40.982,29.273,75.8,16.639,116.784-3.389,72.1-34.819,144.208-75.8,218.468-81.348C634.3,40.636,704.249,34.165,774.2,23.688c68.1-10.168,142.667-34.819,209.224,8.32,63.168,40.982,114.627,105.383,182.725,98.912,68.1-6.163,134.656-39.441,201.829-61.935,74.261-24.959,144.824-32.354,218.16,9.244,86.278,48.994,166.394,126.336,256.369,137.121" transform="translate(159.456 -7.299)" fill="none" stroke="#707070" stroke-linecap="round" stroke-linejoin="round" stroke-width="0.75"/>
      <path id="Path_4663" data-name="Path 4663" d="M100.8,54.635c44.372,12.325,83.2,50.842,127.26,80.115,41.6,27.424,76.418,15.407,118.016-4.006,56.389-26.5,112.778-56.081,167.934-71.179a305.778,305.778,0,0,1,52.075-10.477c69.331-7.7,137.737-18.8,207.376-28.965,68.1-9.86,141.126-25.883,207.376,16.947,60.395,39.133,113.7,92.749,175.638,96.138a49.443,49.443,0,0,0,9.552,0c66.866-3.7,136.812-36.668,203.986-58.546,65.633-21.57,128.493-34.511,193.2-8.936,8.628,3.389,16.947,7.4,25.575,11.709,88.435,47.145,168.859,124.487,260.683,135.272" transform="translate(152.796 -4.35)" fill="none" stroke="#707070" stroke-linecap="round" stroke-linejoin="round" stroke-width="0.75"/>
      <path id="Path_4664" data-name="Path 4664" d="M97.5,64.016c43.755,12.017,84.121,48.377,129.417,76.11,41.907,25.883,77.342,14.174,119.249-4.93C404.1,109,461.409,80.039,515.641,64.941a448.432,448.432,0,0,1,51.767-12.017C635.814,42.447,703.3,27.04,772.318,17.179,840.108,7.627,911.6.232,977.536,42.755c61.011,39.133,117.708,86.278,178.411,92.441a46.413,46.413,0,0,0,9.244.308c65.633-1.233,138.969-33.587,206.451-55.156,65.325-20.953,128.493-38.517,193.509-14.482a233.533,233.533,0,0,1,25.884,11.093c90.284,45.3,171.016,122.638,264.689,133.423" transform="translate(145.927 -2.33)" fill="none" stroke="#707070" stroke-linecap="round" stroke-linejoin="round" stroke-width="0.75"/>
      <path id="Path_4665" data-name="Path 4665" d="M94.2,73.492c43.447,11.4,85.046,45.6,131.574,72.1,42.215,24.035,78.267,12.634,120.481-5.546,59.162-25.883,118.016-54.232,171.324-69.331,17.256-4.93,34.511-9.86,51.459-13.25,67.482-13.25,133.731-32.662,202.445-42.215,67.79-9.244,137.429-8.012,203.37,34.2,61.011,38.825,121.405,79.5,180.876,88.743,3.081.308,6.163.924,9.244.924,64.4,1.233,141.126-30.814,208.916-52.075,65.325-20.645,128.493-42.523,193.818-20.337a266.158,266.158,0,0,1,26.5,10.785c92.441,43.447,173.172,120.789,269,131.266" transform="translate(139.059 -0.713)" fill="none" stroke="#707070" stroke-linecap="round" stroke-linejoin="round" stroke-width="0.75"/>
      <path id="Path_4666" data-name="Path 4666" d="M90.9,84.284c42.831,10.785,85.662,42.831,133.423,68.1,42.831,22.494,78.883,11.4,121.406-6.471C406.431,120.336,466.21,92.6,518.593,77.5c17.256-4.93,34.2-10.477,51.459-14.482,66.557-15.715,131.882-39.75,199.98-48.994,67.482-9.244,135.888.924,201.521,42.831,61.627,38.825,125.719,73.336,183.957,85.662a41.67,41.67,0,0,0,8.936,1.233c63.168,3.7,142.975-28.04,211.381-48.685,65.017-20.029,128.8-46.837,193.818-25.883a237.959,237.959,0,0,1,26.808,10.168c94.6,41.29,175.638,118.94,273.008,129.417" transform="translate(132.19 -0.104)" fill="none" stroke="#707070" stroke-linecap="round" stroke-linejoin="round" stroke-width="0.75"/>
      <path id="Path_4667" data-name="Path 4667" d="M87.6,95.346c42.215,10.477,86.586,40.366,135.58,64.092,43.139,20.953,79.807,10.168,122.638-7.087,62.243-25.267,122.946-52.383,174.713-67.79,17.256-5.238,34.2-11.093,51.151-15.715C637.623,50.358,701.407,22.01,769.505,13.074c67.174-8.936,134.039,9.86,199.672,51.151,61.935,38.825,129.417,66.866,186.422,82.272,2.773.616,5.854,1.541,8.936,1.541,61.935,5.855,145.132-24.959,213.538-45.3,65.017-19.413,128.8-50.842,194.126-31.43,8.936,2.773,18.18,5.855,27.116,9.552,96.755,39.441,177.794,117.092,277.322,127.26" transform="translate(125.322 -0.073)" fill="none" stroke="#707070" stroke-linecap="round" stroke-linejoin="round" stroke-width="0.75"/>
      <path id="Path_4668" data-name="Path 4668" d="M84.3,106.763c41.6,9.86,87.2,37.593,137.737,60.395,43.447,19.413,80.732,8.936,123.871-8.012,63.476-24.959,125.72-51.459,176.254-66.866C539.417,87.043,556.056,80.572,573,75.025,638.021,54.072,700.88,21.41,768.362,12.474c67.174-8.628,132.5,18.8,197.515,59.778,62.243,38.825,133.423,60.395,189.2,78.883a39.318,39.318,0,0,0,8.628,2.157c60.7,8.32,147.289-21.878,216-41.906,65.017-18.8,128.8-54.848,194.434-37.284a241.4,241.4,0,0,1,27.732,8.936c99.22,37.593,180.26,115.243,281.636,125.411" transform="translate(118.453 -0.089)" fill="none" stroke="#707070" stroke-linecap="round" stroke-linejoin="round" stroke-width="0.75"/>
      <path id="Path_4669" data-name="Path 4669" d="M81,118.013c40.982,9.552,87.819,35.128,139.894,56.389,43.447,17.872,81.656,7.7,125.1-8.628,65.017-24.651,128.185-50.534,178.1-65.941,17.256-5.238,33.895-12.325,50.534-18.488,64.092-23.726,125.72-60.7,192.893-69.331,66.866-8.32,130.65,27.732,195.666,68.406,62.86,38.825,137.429,53.924,191.969,75.185a70.51,70.51,0,0,0,8.628,2.465c59.47,10.477,149.446-19.1,218.468-38.517,64.708-18.18,128.8-59.162,194.742-42.831,9.244,2.465,18.8,4.93,28.04,8.32,101.069,35.744,182.417,113.394,285.642,123.254" transform="translate(111.585 -0.246)" fill="none" stroke="#707070" stroke-linecap="round" stroke-linejoin="round" stroke-width="0.75"/>
      <path id="Path_4670" data-name="Path 4670" d="M77.7,129.69c40.366,8.936,88.435,32.662,142.051,52.383,43.755,16.331,82.58,6.471,126.028-9.552,66.557-24.343,130.958-49.61,179.952-65.017,17.256-5.238,33.587-12.942,50.226-19.721,63.168-26.192,123.871-67.79,190.428-76.11C833.25,3.354,895.185,48.65,960.2,88.708c63.168,38.825,141.434,47.453,194.742,71.8a71.1,71.1,0,0,0,8.628,3.081c58.238,12.942,151.6-16.331,220.625-35.128,64.709-17.872,129.109-63.476,195.05-48.685,9.552,2.157,19.1,4.622,28.349,7.7,103.225,33.587,184.573,111.545,289.648,121.406" transform="translate(104.717 -0.522)" fill="none" stroke="#707070" stroke-linecap="round" stroke-linejoin="round" stroke-width="0.75"/>
      <path id="Path_4671" data-name="Path 4671" d="M74.4,141.065c39.75,8.32,89.359,29.889,144.208,48.377,44.063,14.791,83.2,5.238,127.26-10.168,67.79-24.035,133.423-48.686,181.492-64.092,16.948-5.546,33.587-13.558,49.918-21.261,62.243-28.657,121.714-74.569,187.963-82.58C832.106,3.328,892.809,57.252,957.518,97c63.476,38.825,145.132,40.982,197.207,68.406a51.965,51.965,0,0,0,8.32,3.39c57.005,15.1,153.76-13.25,223.091-31.738,64.4-17.256,129.109-67.482,195.05-54.232,9.552,1.849,19.412,4.314,28.965,7.087,105.382,31.43,187.038,109.388,293.962,119.249" transform="translate(97.848 -0.804)" fill="none" stroke="#707070" stroke-linecap="round" stroke-linejoin="round" stroke-width="0.75"/>
      <path id="Path_4672" data-name="Path 4672" d="M71.2,152.782c39.441,8.012,89.976,27.424,146.365,44.372,44.063,13.25,84.121,4.006,128.493-11.093,69.331-23.418,136.2-47.761,183.341-63.168,16.947-5.546,33.279-14.174,49.61-22.494,61.319-31.122,119.865-81.656,185.5-89.359,66.557-7.7,125.411,54.848,190.12,93.981,63.784,38.825,149.138,34.2,199.98,65.017a34.1,34.1,0,0,0,8.32,3.7c55.464,17.256,155.609-10.477,225.556-28.657,64.4-16.639,129.417-71.8,195.358-60.087,9.86,1.849,19.721,3.7,29.273,6.471,107.54,29.581,189.2,107.848,297.968,117.4" transform="translate(91.188 -1.12)" fill="none" stroke="#707070" stroke-linecap="round" stroke-linejoin="round" stroke-width="0.75"/>
      <path id="Path_4673" data-name="Path 4673" d="M67.9,164.213c38.825,7.4,90.592,24.959,148.522,40.674,44.372,12.017,85.046,2.773,129.725-11.709,70.871-23.11,138.661-47.145,184.882-62.552,16.947-5.546,33.279-14.791,49.61-23.726,60.395-33.587,117.708-88.743,183.033-96.138,66.249-7.4,123.871,63.784,187.963,102.609s153.144,27.732,202.753,61.319A66.195,66.195,0,0,0,1162.4,179c54.232,19.413,157.766-7.4,228.021-25.267,64.092-16.023,129.417-76.11,195.666-65.633a295.432,295.432,0,0,1,29.581,5.855c109.7,27.732,191.352,106,302.281,115.551" transform="translate(84.319 -1.458)" fill="none" stroke="#707070" stroke-linecap="round" stroke-linejoin="round" stroke-width="0.75"/>
      <path id="Path_4674" data-name="Path 4674" d="M64.6,175.993c38.209,7.087,91.208,22.494,150.37,36.668,44.68,10.477,85.97,1.541,130.65-12.634,72.412-22.8,141.126-46.22,186.73-61.627,16.947-5.855,32.971-15.407,49.3-24.959C641.431,77.389,697.511,17.919,762.22,10.524c66.249-7.4,122.022,72.72,186.114,111.237,64.709,38.517,157.149,21.261,205.527,57.93a34.023,34.023,0,0,0,8.012,4.622c53,21.57,159.922-4.622,230.177-21.878,63.784-15.715,129.725-80.423,195.975-71.179,10.168,1.541,20.337,3.081,30.2,5.238,111.854,25.575,193.818,104.15,306.287,113.394" transform="translate(77.451 -1.837)" fill="none" stroke="#707070" stroke-linecap="round" stroke-linejoin="round" stroke-width="0.75"/>
      <path id="Path_4675" data-name="Path 4675" d="M61.3,187.657c37.593,6.471,91.825,20.337,152.527,32.662,44.68,9.244,86.894.308,131.882-13.25,73.644-22.494,143.9-45.3,188.271-60.7,16.948-5.855,32.971-15.715,48.994-26.5,58.854-38.825,114.01-102.609,178.411-109.7C827.326,3.084,881.558,91.827,945.65,130.036c65.017,38.517,161.155,14.791,208.3,54.54a48.191,48.191,0,0,0,7.7,5.238c51.767,23.418,162.08-1.849,232.643-18.488,63.784-15.1,129.725-84.737,195.975-77.034q15.715,1.849,30.505,4.622c114.318,23.726,195.974,102.609,310.6,111.853" transform="translate(70.582 -2.409)" fill="none" stroke="#707070" stroke-linecap="round" stroke-linejoin="round" stroke-width="0.75"/>
      <path id="Path_4676" data-name="Path 4676" d="M58,199.222c36.976,5.855,92.133,17.872,154.684,28.657,44.988,7.7,87.819-.616,133.115-13.866,75.185-21.878,146.365-44.372,190.12-59.778C552.866,148.38,568.581,137.9,584.6,126.5c57.93-41.29,111.853-109.7,175.946-116.475,65.633-6.779,118.632,90.9,182.417,128.185,65.325,38.517,164.853,8.012,210.765,51.151a29.044,29.044,0,0,0,7.7,5.546c50.534,25.575,164.237,1.233,235.108-15.1,63.476-14.482,129.725-89.051,195.975-82.58,10.477.924,20.645,2.157,30.813,4.006,116.167,21.57,198.44,100.452,314.607,109.388" transform="translate(63.714 -2.573)" fill="none" stroke="#707070" stroke-linecap="round" stroke-linejoin="round" stroke-width="0.75"/>
      <path id="Path_4677" data-name="Path 4677" d="M54.7,211c36.36,5.546,92.749,15.407,156.841,24.651,44.988,6.471,88.435-1.849,134.347-14.791,76.726-21.57,148.83-43.755,191.969-58.854,16.947-6.163,32.662-16.947,48.377-28.965C643.24,89.6,696.239,16.57,759.715,9.791,825.04,3.32,876.5,109.627,939.975,146.6c65.633,38.517,168.859,1.541,213.538,47.761a34.42,34.42,0,0,0,7.4,5.855c49.3,27.424,166.085,4.006,237.265-11.709,63.476-14.174,130.033-93.365,196.591-88.435,10.785.924,20.953,1.849,31.43,3.7,118.632,19.413,200.6,98.6,318.921,107.539" transform="translate(56.845 -2.953)" fill="none" stroke="#707070" stroke-linecap="round" stroke-linejoin="round" stroke-width="0.75"/>
      <path id="Path_4678" data-name="Path 4678" d="M51.4,222.083c35.744,4.93,93.365,13.25,159,20.953,45.3,5.238,89.359-3.081,135.272-15.407,78.267-21.261,151.6-42.831,193.509-57.93,16.947-6.163,32.662-17.564,48.069-30.2C643.638,93.59,695.1,15.94,758.264,9.777c65.325-6.471,115.243,108.772,178.411,145.44,65.941,38.517,172.864-4.93,216.311,44.063a37.176,37.176,0,0,0,7.4,6.471c48.069,29.581,168.242,6.779,239.73-8.32,63.168-13.558,130.034-97.679,196.9-93.981,10.785.616,21.261,1.541,31.738,3.081,120.789,17.256,202.753,96.755,322.927,105.691" transform="translate(49.977 -2.939)" fill="none" stroke="#707070" stroke-linecap="round" stroke-linejoin="round" stroke-width="0.75"/>
      <path id="Path_4679" data-name="Path 4679" d="M48.1,234.081c35.436,4.622,93.981,11.093,161.155,16.947,45.3,4.006,90.284-4.314,136.5-16.331,79.5-20.645,154.068-41.906,195.358-57.005,16.948-6.163,32.354-18.18,47.761-31.738,55.464-48.377,106-130.65,168.55-136.5,65.325-6.163,113.394,117.708,176.562,154.068,66.557,38.209,176.87-11.709,219.085,40.674a31.285,31.285,0,0,0,7.4,6.779c46.837,31.43,170.4,9.86,242.195-4.93,63.168-12.942,130.342-101.993,197.207-99.836a270.027,270.027,0,0,1,32.046,2.465c122.946,15.1,205.219,95.214,326.932,103.534" transform="translate(43.108 -3.537)" fill="none" stroke="#707070" stroke-linecap="round" stroke-linejoin="round" stroke-width="0.75"/>
      <path id="Path_4680" data-name="Path 4680" d="M44.8,245.776c34.819,4.006,94.6,8.936,163.312,12.942,45.6,2.773,91.208-5.546,137.737-16.947,81.04-20.337,156.841-40.982,196.9-56.389,16.948-6.471,32.354-18.8,47.761-32.971C645.357,101.568,694.351,14.982,756.594,9.127c65.017-5.855,111.853,126.644,174.713,162.388,66.866,38.209,180.876-18.18,221.55,37.284a25.862,25.862,0,0,0,7.087,7.087c45.912,33.279,172.556,12.634,244.352-1.849C1467.156,201.4,1534.638,110.2,1601.5,108.655a229.615,229.615,0,0,1,32.662,1.849c125.1,12.942,207.376,93.365,331.246,101.685" transform="translate(36.24 -4.138)" fill="none" stroke="#707070" stroke-linecap="round" stroke-linejoin="round" stroke-width="0.75"/>
      <path id="Path_4681" data-name="Path 4681" d="M41.6,257.573c34.2,3.389,95.522,2.157,165.469,8.936,45.6,4.622,92.133-6.779,138.969-17.872,82.58-19.721,159.306-40.366,198.748-55.464,16.639-6.471,32.046-19.1,47.453-34.2C646.163,105.662,694.232,14.454,755.859,8.908c65.017-5.546,110,135.272,172.556,171.016,67.174,38.209,184.882-24.651,224.323,33.895a33.477,33.477,0,0,0,7.087,7.7c44.68,35.128,174.713,15.407,246.817,1.541,62.86-12.017,130.65-108.464,197.515-110.929a289.388,289.388,0,0,1,32.971,1.233c127.26,10.785,209.84,91.516,335.252,99.528" transform="translate(29.579 -4.535)" fill="none" stroke="#707070" stroke-linecap="round" stroke-linejoin="round" stroke-width="0.75"/>
      <path id="Path_4682" data-name="Path 4682" d="M38.3,269.066c33.587,3.081,96.138.308,167.318,4.93,45.912,3.081,93.057-7.7,139.894-18.488,84.121-19.413,161.771-39.441,200.288-54.54,16.639-6.471,32.046-19.721,47.145-35.436C646.252,109.759,692.781,13.929,754.1,8.691,818.809,3.452,862.564,152.9,924.807,188.334c67.79,37.9,188.887-31.122,227.1,30.2a28.424,28.424,0,0,0,6.779,8.012c43.755,36.976,176.562,18.488,249.282,4.93,62.551-11.4,130.65-115.243,197.823-116.784,11.4-.308,22.494,0,33.279.616,129.417,8.628,212,89.668,339.566,97.679" transform="translate(22.711 -4.934)" fill="none" stroke="#707070" stroke-linecap="round" stroke-linejoin="round" stroke-width="0.75"/>
      <path id="Path_4683" data-name="Path 4683" d="M35,281.086c32.971,2.465,96.447-1.233,169.475.924,46.22,1.233,93.981-8.936,141.126-19.413,85.662-18.8,164.545-38.517,202.137-53.616,16.639-6.779,32.046-20.337,46.837-36.976,52.383-58.238,97.987-158.382,159-163.62,64.4-5.238,106.615,153.452,168.859,188.271,68.1,37.9,192.893-37.9,229.87,26.808a43.9,43.9,0,0,0,6.779,8.628c42.523,38.825,178.719,21.261,251.747,8.32,62.552-11.093,130.958-119.557,198.131-122.33a310.876,310.876,0,0,1,33.895,0c131.574,6.471,214.155,87.819,343.572,95.522" transform="translate(15.842 -5.554)" fill="none" stroke="#707070" stroke-linecap="round" stroke-linejoin="round" stroke-width="0.75"/>
      <path id="Path_4684" data-name="Path 4684" d="M31.7,292.374c32.354,2.157,97.063.616,171.632-2.773,46.22-2.157,94.906-10.168,142.359-20.029,87.2-18.488,167.01-37.9,203.986-52.691,16.639-6.779,31.738-20.953,46.529-38.209,51.767-60.7,95.83-165.777,156.225-170.4,64.4-4.93,105.074,162.388,167.01,196.9,68.406,37.9,196.9-44.372,232.334,23.418a47.3,47.3,0,0,0,6.471,8.936c41.6,40.982,180.876,24.035,253.9,11.709,62.244-10.477,130.958-124.179,198.44-128.185,11.709-.616,23.11-.924,34.2-.616,134.039,4.314,216.928,85.97,348.194,93.673" transform="translate(8.974 -5.748)" fill="none" stroke="#707070" stroke-linecap="round" stroke-linejoin="round" stroke-width="0.75"/>
      <path id="Path_4685" data-name="Path 4685" d="M28.4,303.971c31.738,1.541,97.987-1.541,173.789-6.779,46.529-3.389,95.522-11.093,143.591-20.953,88.435-17.872,169.475-36.976,205.527-51.767,16.639-6.779,31.738-21.57,46.22-39.441C648.37,122.171,691.509,12.474,751.6,8.16c64.092-4.622,103.226,171.324,164.853,205.219,68.714,37.9,200.9-50.842,235.108,20.029a31.385,31.385,0,0,0,6.471,9.244c40.674,42.831,183.033,26.808,256.369,15.1,62.244-10.168,130.958-128.493,198.44-133.731,12.017-.924,23.418-1.233,34.511-1.233,135.888,2.157,218.777,84.121,351.891,91.516" transform="translate(2.105 -5.945)" fill="none" stroke="#707070" stroke-linecap="round" stroke-linejoin="round" stroke-width="0.75"/>
      <path id="Path_4686" data-name="Path 4686" d="M25.1,315.886c31.43,1.233,98.6-3.389,175.946-10.785,46.837-4.314,96.447-12.325,144.516-21.57,89.976-17.256,172.248-36.052,207.376-51.151,16.639-7.087,31.738-21.878,46.22-40.982C649.384,126.074,690.982,11.756,750.76,7.75c64.092-4.314,101.685,180.26,163,213.846,69.331,37.9,204.91-57.621,237.881,16.639a47.752,47.752,0,0,0,6.163,9.86c39.441,44.68,184.882,29.581,258.834,18.488C1478.578,257.032,1547.908,133.47,1615.39,127c12.017-1.233,23.726-1.541,35.128-1.849,138.045-.924,220.934,82.272,356.205,89.668" transform="translate(-4.763 -6.767)" fill="none" stroke="#707070" stroke-linecap="round" stroke-linejoin="round" stroke-width="0.75"/>
      <path id="Path_4687" data-name="Path 4687" d="M21.8,327.7c30.814.616,99.22-5.546,178.1-14.791,47.145-5.546,97.371-13.558,145.748-22.494,91.516-16.639,174.713-35.436,208.916-50.226C571.207,233.1,586,217.7,600.479,197.976c49.61-67.79,89.976-186.422,149.138-190.428,63.784-4.314,99.836,189.2,161.155,222.474,69.639,37.9,208.916-63.784,240.654,13.25a42.672,42.672,0,0,0,6.163,10.169c38.517,46.529,187.039,32.662,260.991,21.878,61.935-9.244,131.266-137.429,199.056-145.132,12.325-1.233,24.035-2.157,35.436-2.465,140.2-2.465,223.4,80.424,360.211,87.819" transform="translate(-11.632 -7.181)" fill="none" stroke="#707070" stroke-linecap="round" stroke-linejoin="round" stroke-width="0.75"/>
      <path id="Path_4688" data-name="Path 4688" d="M18.5,338.994c81.964.308,457.274-55.773,537.7-91.208C629.842,215.74,672.981,12.062,748.782,7.44c63.784-4.006,97.987,198.131,159.306,231.1,69.947,37.593,212.922-70.563,243.427,9.552,23.11,60.7,190.12,46.837,269.619,35.744,61.627-8.628,131.266-142.051,199.364-150.678,165.161-21.57,250.207,75.185,400.269,82.889" transform="translate(-18.5 -7.381)" fill="none" stroke="#707070" stroke-linecap="round" stroke-linejoin="round" stroke-width="0.75"/>
    </g>
    <circle id="Ellipse_2" data-name="Ellipse 2" cx="30.505" cy="30.505" r="30.505" transform="translate(1212.219 67.218)" fill="#fff"/>
    <path id="Path_4689" data-name="Path 4689" d="M524.337,71.368A10.168,10.168,0,1,1,514.169,61.2,10.061,10.061,0,0,1,524.337,71.368Z" transform="translate(1010.5 112.017)" fill="#fff"/>
  </g>
</svg>
