<?xml version="1.0"?>
<svg xmlns="http://www.w3.org/2000/svg" xmlns:xlink="http://www.w3.org/1999/xlink" xmlns:svgjs="http://svgjs.com/svgjs" version="1.1" width="512" height="512" x="0" y="0" viewBox="0 0 24 24" style="enable-background:new 0 0 512 512" xml:space="preserve" class=""><g><g xmlns="http://www.w3.org/2000/svg" clip-rule="evenodd" fill="rgb(0,0,0)" fill-rule="evenodd"><path d="m11.1464 1.85355c.315-.31498.8536-.0919.8536.35356v7.58578c0 .44541-.5386.66851-.8536.35351l-3.79285-3.79285c-.19526-.19526-.19526-.51184 0-.7071z" fill="#ffffff" data-original="#000000" style="" class=""/><path d="m11 6c0-.55228.4477-1 1-1 4.4183 0 8 3.58172 8 8 0 4.4183-3.5817 8-8 8-4.41828 0-8-3.5817-8-8 0-.5523.44772-1 1-1s1 .4477 1 1c0 3.3137 2.68629 6 6 6 3.3137 0 6-2.6863 6-6 0-3.31371-2.6863-6-6-6-.5523 0-1-.44772-1-1z" fill="#ffffff" data-original="#000000" style="" class=""/></g></g></svg>
